<?xml version="1.0" encoding="iso-8859-1"?>
<!-- Generator: Adobe Illustrator 19.0.0, SVG Export Plug-In . SVG Version: 6.00 Build 0)  -->
<svg version="1.1" id="Capa_1" xmlns="http://www.w3.org/2000/svg" xmlns:xlink="http://www.w3.org/1999/xlink" x="0px" y="0px"
	 viewBox="0 0 511 511" style="enable-background:new 0 0 511 511;" xml:space="preserve" fill="currentColor">
<g>
	<path d="M406.955,323.231c5.903-10.164,10.241-21.144,12.907-32.543c7.545,2.833,15.565,4.312,23.638,4.312
		c37.22,0,67.5-30.28,67.5-67.5v-40c0-37.22-30.28-67.5-67.5-67.5c-6.949,0-13.882,1.101-20.5,3.218V103.5
		c0-12.958-10.542-23.5-23.5-23.5h-288C98.542,80,88,90.542,88,103.5v160c0,21.003,5.548,41.658,16.045,59.731
		c6.24,10.744,14.147,20.453,23.346,28.769H7.5c-4.142,0-7.5,3.358-7.5,7.5C0,381.28,17.72,399,39.5,399h65.223
		c3.515,18.205,19.561,32,38.777,32h224c19.216,0,35.262-13.795,38.777-32H471.5c21.78,0,39.5-17.72,39.5-39.5
		c0-4.142-3.358-7.5-7.5-7.5H383.609C392.808,343.685,400.715,333.976,406.955,323.231z M423,187.5c0-11.304,9.196-20.5,20.5-20.5
		s20.5,9.196,20.5,20.5v40c0,11.304-9.196,20.5-20.5,20.5s-20.5-9.196-20.5-20.5V187.5z M443.5,135c28.949,0,52.5,23.551,52.5,52.5
		v40c0,28.949-23.551,52.5-52.5,52.5c-7.261,0-14.464-1.56-21.109-4.495c0.402-3.979,0.609-7.985,0.609-12.005v-7.045
		c5.795,4.115,12.867,6.545,20.5,6.545c19.575,0,35.5-15.925,35.5-35.5v-40c0-19.575-15.925-35.5-35.5-35.5
		c-7.633,0-14.705,2.43-20.5,6.545v-19.329C429.491,136.431,436.364,135,443.5,135z M367.5,416h-224
		c-10.895,0-20.151-7.147-23.326-17h270.652C387.651,408.853,378.395,416,367.5,416z M471.5,384h-72h-288h-72
		c-10.895,0-20.151-7.147-23.326-17h344.79c0.005,0,0.01,0.001,0.015,0.001c0.005,0,0.01-0.001,0.015-0.001h133.832
		C491.651,376.853,482.395,384,471.5,384z M152.168,352C121.346,332.719,103,299.793,103,263.5v-160c0-4.687,3.813-8.5,8.5-8.5h288
		c4.687,0,8.5,3.813,8.5,8.5v30.887c0,0.015,0,0.03,0,0.045V187.5v40v36c0,4.942-0.351,9.818-1.016,14.609
		c-0.104,0.433-0.166,0.87-0.191,1.307c-4.529,29.858-21.719,56.167-47.962,72.583H152.168z"/>
	<path d="M383.5,143c4.142,0,7.5-3.358,7.5-7.5v-16c0-4.142-3.358-7.5-7.5-7.5s-7.5,3.358-7.5,7.5v16
		C376,139.642,379.358,143,383.5,143z"/>
	<path d="M391,239.5v-72c0-4.142-3.358-7.5-7.5-7.5s-7.5,3.358-7.5,7.5v72c0,4.142,3.358,7.5,7.5,7.5S391,243.642,391,239.5z"/>
	<path d="M127.5,238.997c4.142,0,7.5-3.358,7.5-7.5v-15.995c0-4.142-3.358-7.5-7.5-7.5s-7.5,3.358-7.5,7.5v15.995
		C120,235.639,123.358,238.997,127.5,238.997z"/>
	<path d="M164.151,321.481C145.625,307.708,135,286.575,135,263.5c0-4.142-3.358-7.5-7.5-7.5s-7.5,3.358-7.5,7.5
		c0,27.866,12.831,53.387,35.202,70.019c1.344,1,2.913,1.481,4.469,1.481c2.291,0,4.553-1.046,6.025-3.026
		C168.167,328.65,167.476,323.952,164.151,321.481z"/>
</g>
<g>
</g>
<g>
</g>
<g>
</g>
<g>
</g>
<g>
</g>
<g>
</g>
<g>
</g>
<g>
</g>
<g>
</g>
<g>
</g>
<g>
</g>
<g>
</g>
<g>
</g>
<g>
</g>
<g>
</g>
</svg>
